<?xml version="1.0" encoding="UTF-8" standalone="no"?>
<!DOCTYPE svg PUBLIC "-//W3C//DTD SVG 1.1//EN"
 "http://www.w3.org/Graphics/SVG/1.1/DTD/svg11.dtd">
<!-- Generated by graphviz version 8.1.0 (20230707.0739)
 -->
<!-- Title: src_compile Pages: 1 -->
<svg width="742pt" height="385pt"
 viewBox="0.00 0.00 742.00 384.50" xmlns="http://www.w3.org/2000/svg" xmlns:xlink="http://www.w3.org/1999/xlink">
<g id="graph0" class="graph" transform="scale(1 1) rotate(0) translate(4 380.5)">
<title>src_compile</title>
<polygon fill="white" stroke="none" points="-4,4 -4,-380.5 738,-380.5 738,4 -4,4"/>
<g id="clust1" class="cluster">
<title>cluster_osbuild_getting_started</title>
<polygon fill="lightgrey" stroke="black" points="302,-270.5 302,-368.5 462,-368.5 462,-270.5 302,-270.5"/>
<text text-anchor="middle" x="382" y="-351.2" font-family="Times,serif" font-size="14.00">osbuild&#45;</text>
<text text-anchor="middle" x="382" y="-334.7" font-family="Times,serif" font-size="14.00">getting&#45;started</text>
</g>
<g id="clust2" class="cluster">
<title>cluster_osbuild</title>
<polygon fill="lightgrey" stroke="black" points="8,-164.5 8,-262.5 132,-262.5 132,-164.5 8,-164.5"/>
<text text-anchor="middle" x="70" y="-245.2" font-family="Times,serif" font-size="14.00">osbuild</text>
<text text-anchor="middle" x="70" y="-228.7" font-family="Times,serif" font-size="14.00"> </text>
</g>
<g id="clust3" class="cluster">
<title>cluster_osbuild_composer</title>
<polygon fill="lightgrey" stroke="black" points="140,-92.5 140,-262.5 462,-262.5 462,-92.5 140,-92.5"/>
<text text-anchor="middle" x="301" y="-245.2" font-family="Times,serif" font-size="14.00">osbuild&#45;composer</text>
<text text-anchor="middle" x="301" y="-228.7" font-family="Times,serif" font-size="14.00"> </text>
</g>
<g id="clust4" class="cluster">
<title>cluster_image_builder</title>
<polygon fill="lightgrey" stroke="black" points="470,-92.5 470,-262.5 594,-262.5 594,-92.5 470,-92.5"/>
<text text-anchor="middle" x="532" y="-245.2" font-family="Times,serif" font-size="14.00">image&#45;builder</text>
<text text-anchor="middle" x="532" y="-228.7" font-family="Times,serif" font-size="14.00"> </text>
</g>
<g id="clust5" class="cluster">
<title>cluster_image_builder_frontend</title>
<polygon fill="lightgrey" stroke="black" points="602,-164.5 602,-262.5 726,-262.5 726,-164.5 602,-164.5"/>
<text text-anchor="middle" x="664" y="-245.2" font-family="Times,serif" font-size="14.00">image&#45;builder&#45;</text>
<text text-anchor="middle" x="664" y="-228.7" font-family="Times,serif" font-size="14.00">fronted</text>
</g>
<g id="clust6" class="cluster">
<title>cluster_pulp_client</title>
<polygon fill="lightgrey" stroke="black" points="219,-8 219,-84.5 343,-84.5 343,-8 219,-8"/>
<text text-anchor="middle" x="281" y="-67.2" font-family="Times,serif" font-size="14.00">pulp&#45;client</text>
</g>
<g id="clust7" class="cluster">
<title>cluster_images</title>
<polygon fill="lightgrey" stroke="black" points="351,-8 351,-84.5 425,-84.5 425,-8 351,-8"/>
<text text-anchor="middle" x="388" y="-67.2" font-family="Times,serif" font-size="14.00">images</text>
</g>
<g id="clust8" class="cluster">
<title>cluster_community_gateway</title>
<polygon fill="lightgrey" stroke="black" points="445,-8 445,-84.5 605,-84.5 605,-8 445,-8"/>
<text text-anchor="middle" x="525" y="-67.2" font-family="Times,serif" font-size="14.00">community&#45;gateway</text>
</g>
<!-- osbuild_getting_started_makefile -->
<g id="node1" class="node">
<title>osbuild_getting_started_makefile</title>
<polygon fill="white" stroke="black" points="454,-319.5 310,-319.5 310,-278.5 454,-278.5 454,-319.5"/>
<text text-anchor="middle" x="382" y="-302.2" font-family="Times,serif" font-size="14.00">make</text>
<text text-anchor="middle" x="382" y="-285.7" font-family="Times,serif" font-size="14.00">service&#45;containers</text>
</g>
<!-- osbuild_makefile -->
<g id="node2" class="node">
<title>osbuild_makefile</title>
<polygon fill="white" stroke="black" points="124,-213.5 16,-213.5 16,-172.5 124,-172.5 124,-213.5"/>
<text text-anchor="middle" x="70" y="-196.2" font-family="Times,serif" font-size="14.00">make</text>
<text text-anchor="middle" x="70" y="-179.7" font-family="Times,serif" font-size="14.00">container</text>
</g>
<!-- osbuild_getting_started_makefile&#45;&gt;osbuild_makefile -->
<g id="edge5" class="edge">
<title>osbuild_getting_started_makefile&#45;&gt;osbuild_makefile</title>
<path fill="none" stroke="black" d="M309.74,-292.78C248.31,-287.39 165.52,-277.63 136,-262.5 117.74,-253.14 101.67,-236.74 89.95,-222.33"/>
<polygon fill="black" stroke="black" points="92.14,-220.44 83.24,-214.7 86.61,-224.74 92.14,-220.44"/>
</g>
<!-- osbuild_composer_makefile_worker -->
<g id="node3" class="node">
<title>osbuild_composer_makefile_worker</title>
<polygon fill="white" stroke="black" points="454,-213.5 310,-213.5 310,-172.5 454,-172.5 454,-213.5"/>
<text text-anchor="middle" x="382" y="-196.2" font-family="Times,serif" font-size="14.00">make</text>
<text text-anchor="middle" x="382" y="-179.7" font-family="Times,serif" font-size="14.00">container_worker</text>
</g>
<!-- osbuild_getting_started_makefile&#45;&gt;osbuild_composer_makefile_worker -->
<g id="edge6" class="edge">
<title>osbuild_getting_started_makefile&#45;&gt;osbuild_composer_makefile_worker</title>
<path fill="none" stroke="black" d="M382,-278.44C382,-263.28 382,-242.01 382,-224.6"/>
<polygon fill="black" stroke="black" points="385.5,-224.83 382,-214.83 378.5,-224.83 385.5,-224.83"/>
</g>
<!-- osbuild_composer_makefile_composer -->
<g id="node4" class="node">
<title>osbuild_composer_makefile_composer</title>
<polygon fill="white" stroke="black" points="292,-213.5 148,-213.5 148,-172.5 292,-172.5 292,-213.5"/>
<text text-anchor="middle" x="220" y="-196.2" font-family="Times,serif" font-size="14.00">make</text>
<text text-anchor="middle" x="220" y="-179.7" font-family="Times,serif" font-size="14.00">container_composer</text>
</g>
<!-- osbuild_getting_started_makefile&#45;&gt;osbuild_composer_makefile_composer -->
<g id="edge7" class="edge">
<title>osbuild_getting_started_makefile&#45;&gt;osbuild_composer_makefile_composer</title>
<path fill="none" stroke="black" d="M330.3,-278.02C320.31,-273.42 310.12,-268.19 301,-262.5 282.01,-250.66 262.8,-234.63 247.86,-221.05"/>
<polygon fill="black" stroke="black" points="250.74,-219.03 241.02,-214.8 245.99,-224.16 250.74,-219.03"/>
</g>
<!-- image_builder_makefile -->
<g id="node6" class="node">
<title>image_builder_makefile</title>
<polygon fill="white" stroke="black" points="586,-213.5 478,-213.5 478,-172.5 586,-172.5 586,-213.5"/>
<text text-anchor="middle" x="532" y="-196.2" font-family="Times,serif" font-size="14.00">make</text>
<text text-anchor="middle" x="532" y="-179.7" font-family="Times,serif" font-size="14.00">container</text>
</g>
<!-- osbuild_getting_started_makefile&#45;&gt;image_builder_makefile -->
<g id="edge8" class="edge">
<title>osbuild_getting_started_makefile&#45;&gt;image_builder_makefile</title>
<path fill="none" stroke="black" d="M437.9,-278.14C447.63,-273.64 457.39,-268.42 466,-262.5 482.34,-251.27 497.88,-235.51 509.76,-221.93"/>
<polygon fill="black" stroke="black" points="512.85,-224.7 516.67,-214.82 507.52,-220.17 512.85,-224.7"/>
</g>
<!-- image_builder_frontend_makefile -->
<g id="node8" class="node">
<title>image_builder_frontend_makefile</title>
<polygon fill="white" stroke="black" points="718,-213.5 610,-213.5 610,-172.5 718,-172.5 718,-213.5"/>
<text text-anchor="middle" x="664" y="-196.2" font-family="Times,serif" font-size="14.00">make</text>
<text text-anchor="middle" x="664" y="-179.7" font-family="Times,serif" font-size="14.00">container</text>
</g>
<!-- osbuild_getting_started_makefile&#45;&gt;image_builder_frontend_makefile -->
<g id="edge9" class="edge">
<title>osbuild_getting_started_makefile&#45;&gt;image_builder_frontend_makefile</title>
<path fill="none" stroke="black" d="M454.43,-297.44C498.18,-294.43 553.84,-285.69 598,-262.5 616.04,-253.03 632.02,-236.77 643.74,-222.47"/>
<polygon fill="black" stroke="black" points="647.05,-224.93 650.47,-214.9 641.54,-220.61 647.05,-224.93"/>
</g>
<!-- osbuild_composer_makefile_worker&#45;&gt;osbuild_makefile -->
<g id="edge13" class="edge">
<title>osbuild_composer_makefile_worker:s&#45;&gt;osbuild_makefile:s</title>
<path fill="none" stroke="black" stroke-dasharray="5,2" d="M382,-171C382,-121.53 339.04,-120.81 292,-105.5 229.87,-85.29 206.17,-82.55 145,-105.5 107.13,-119.71 75.83,-125.69 70.73,-160.41"/>
<polygon fill="black" stroke="black" points="67.19,-159.78 70,-170 74.18,-160.26 67.19,-159.78"/>
</g>
<!-- osbuild_composer_go -->
<g id="node5" class="node">
<title>osbuild_composer_go</title>
<polygon fill="white" stroke="black" points="411.38,-136.5 352.62,-136.5 352.62,-100.5 411.38,-100.5 411.38,-136.5"/>
<text text-anchor="middle" x="382" y="-113.45" font-family="Times,serif" font-size="14.00">go code</text>
</g>
<!-- osbuild_composer_makefile_worker&#45;&gt;osbuild_composer_go -->
<g id="edge10" class="edge">
<title>osbuild_composer_makefile_worker&#45;&gt;osbuild_composer_go</title>
<path fill="none" stroke="black" stroke-dasharray="5,2" d="M382,-172.19C382,-164.67 382,-155.94 382,-147.79"/>
<polygon fill="black" stroke="black" points="385.5,-147.82 382,-137.82 378.5,-147.82 385.5,-147.82"/>
</g>
<!-- osbuild_composer_makefile_composer&#45;&gt;osbuild_composer_go -->
<g id="edge11" class="edge">
<title>osbuild_composer_makefile_composer&#45;&gt;osbuild_composer_go</title>
<path fill="none" stroke="black" stroke-dasharray="5,2" d="M264.27,-172.19C288.75,-161.23 318.91,-147.73 342.58,-137.14"/>
<polygon fill="black" stroke="black" points="343.92,-139.93 351.62,-132.65 341.06,-133.54 343.92,-139.93"/>
</g>
<!-- pulp_client_go -->
<g id="node9" class="node">
<title>pulp_client_go</title>
<polygon fill="white" stroke="black" points="335,-52 227,-52 227,-16 335,-16 335,-52"/>
<text text-anchor="middle" x="281" y="-28.95" font-family="Times,serif" font-size="14.00">go code</text>
</g>
<!-- osbuild_composer_go&#45;&gt;pulp_client_go -->
<g id="edge2" class="edge">
<title>osbuild_composer_go&#45;&gt;pulp_client_go</title>
<path fill="none" stroke="black" stroke-dasharray="5,2" d="M360.58,-100C346.12,-88.19 326.83,-72.44 310.86,-59.39"/>
<polygon fill="black" stroke="black" points="313.35,-56.09 303.39,-52.47 308.92,-61.51 313.35,-56.09"/>
</g>
<!-- images_go -->
<g id="node10" class="node">
<title>images_go</title>
<polygon fill="white" stroke="black" points="417.38,-52 358.62,-52 358.62,-16 417.38,-16 417.38,-52"/>
<text text-anchor="middle" x="388" y="-28.95" font-family="Times,serif" font-size="14.00">go code</text>
</g>
<!-- osbuild_composer_go&#45;&gt;images_go -->
<g id="edge3" class="edge">
<title>osbuild_composer_go&#45;&gt;images_go</title>
<path fill="none" stroke="black" stroke-dasharray="5,2" d="M383.27,-100C384.05,-89.28 385.07,-75.32 385.96,-63.08"/>
<polygon fill="black" stroke="black" points="389.49,-63.7 386.73,-53.47 382.51,-63.19 389.49,-63.7"/>
</g>
<!-- image_builder_go -->
<g id="node7" class="node">
<title>image_builder_go</title>
<polygon fill="white" stroke="black" points="554.38,-136.5 495.62,-136.5 495.62,-100.5 554.38,-100.5 554.38,-136.5"/>
<text text-anchor="middle" x="525" y="-113.45" font-family="Times,serif" font-size="14.00">go code</text>
</g>
<!-- image_builder_makefile&#45;&gt;image_builder_go -->
<g id="edge12" class="edge">
<title>image_builder_makefile&#45;&gt;image_builder_go</title>
<path fill="none" stroke="black" stroke-dasharray="5,2" d="M530.09,-172.19C529.35,-164.58 528.5,-155.74 527.7,-147.51"/>
<polygon fill="black" stroke="black" points="531.12,-147.44 526.67,-137.82 524.15,-148.11 531.12,-147.44"/>
</g>
<!-- image_builder_go&#45;&gt;osbuild_composer_go -->
<g id="edge1" class="edge">
<title>image_builder_go&#45;&gt;osbuild_composer_go</title>
<path fill="none" stroke="black" stroke-dasharray="5,2" d="M495.32,-118.5C471.01,-118.5 446.71,-118.5 422.4,-118.5"/>
<polygon fill="black" stroke="black" points="422.61,-115 412.61,-118.5 422.61,-122 422.61,-115"/>
</g>
<!-- community_gateway_go -->
<g id="node11" class="node">
<title>community_gateway_go</title>
<polygon fill="white" stroke="black" points="597,-52 453,-52 453,-16 597,-16 597,-52"/>
<text text-anchor="middle" x="525" y="-28.95" font-family="Times,serif" font-size="14.00">go code</text>
</g>
<!-- image_builder_go&#45;&gt;community_gateway_go -->
<g id="edge4" class="edge">
<title>image_builder_go&#45;&gt;community_gateway_go</title>
<path fill="none" stroke="black" stroke-dasharray="5,2" d="M525,-100C525,-89.39 525,-75.6 525,-63.46"/>
<polygon fill="black" stroke="black" points="528.5,-63.47 525,-53.47 521.5,-63.47 528.5,-63.47"/>
</g>
</g>
</svg>
